<svg xmlns="http://www.w3.org/2000/svg" version="1.1" xmlns:xlink="http://www.w3.org/1999/xlink" xmlns:svgjs="http://svgjs.dev/svgjs" width="1500" height="935" viewBox="0 0 1500 935"><g transform="matrix(1,0,0,1,-0.9090909090909918,0.3785425101214628)"><svg viewBox="0 0 396 247" data-background-color="#ffffff" preserveAspectRatio="xMidYMid meet" height="935" width="1500" xmlns="http://www.w3.org/2000/svg" xmlns:xlink="http://www.w3.org/1999/xlink"><g id="tight-bounds" transform="matrix(1,0,0,1,0.2400000000000091,-0.09999999999999432)"><svg viewBox="0 0 395.52 247.2" height="247.2" width="395.52"><g><svg></svg></g><g><svg viewBox="0 0 395.52 247.2" height="247.2" width="395.52"><g transform="matrix(1,0,0,1,106.45689098222158,47.215199999999996)"><svg viewBox="0 0 182.60621803555682 152.7696" height="152.7696" width="182.60621803555682"><g><svg viewBox="0 0 182.60621803555682 152.7696" height="152.7696" width="182.60621803555682"><g><svg viewBox="0 0 244.43135999999998 204.4929329152684" height="152.7696" width="182.60621803555682"><g><svg viewBox="0 0 244.43135999999998 204.4929329152684" height="204.4929329152684" width="244.43135999999998"><g id="textblocktransform"><svg viewBox="0 0 244.43135999999998 204.4929329152684" height="204.4929329152684" width="244.43135999999998" id="textblock"><g><svg viewBox="0 0 244.43135999999998 143.9270560133444" height="143.9270560133444" width="244.43135999999998"><g transform="matrix(1,0,0,1,0,0)"><svg width="244.43135999999998" viewBox="1.6 -34.9 59.949999999999996 35.3" height="143.9270560133444" data-palette-color="#ed1703"><path d="M22.55-5.8L22.55-15.8 11.55-15.8 11.55-5.8Q13.55-5 14.3-4.15L14.3-4.15 13.8 0 2.1 0 1.6-4.15Q2.25-5 4.35-5.8L4.35-5.8 4.35-28.65Q2.3-29.4 1.6-30.35L1.6-30.35 2.1-34.5 13.8-34.5 14.3-30.35Q13.5-29.4 11.55-28.65L11.55-28.65 11.55-20.8 22.55-20.8 22.55-28.65Q20.5-29.4 19.8-30.35L19.8-30.35 20.3-34.5 32-34.5 32.5-30.35Q31.7-29.4 29.75-28.65L29.75-28.65 29.75-5.8Q31.75-5 32.5-4.15L32.5-4.15 32 0 20.3 0 19.8-4.15Q20.45-5 22.55-5.8L22.55-5.8ZM54.3-28.6L54.3-28.6Q52.8-29.25 49.8-29.25 46.8-29.25 44.95-26.65 43.1-24.05 43.1-17.55 43.1-11.05 44.87-8.33 46.65-5.6 50.15-5.6L50.15-5.6Q55.5-5.6 59.75-7.2L59.75-7.2 61.55-2.75Q56.25 0.4 49.1 0.4 41.95 0.4 38.77-3.65 35.6-7.7 35.6-16.9 35.6-26.1 39.52-30.5 43.45-34.9 50.55-34.9L50.55-34.9Q56.25-34.9 61.4-31.75L61.4-31.75Q61.4-31.45 61.4-30.6 61.4-29.75 61.05-27.7 60.7-25.65 60.05-24.35L60.05-24.35 55.3-24.35Q54.6-25.7 54.3-28.6Z" opacity="1" transform="matrix(1,0,0,1,0,0)" fill="#ed1703" class="wordmark-text-0" data-fill-palette-color="primary" id="text-0"></path></svg></g></svg></g><g transform="matrix(1,0,0,1,0,177.9047796887507)"><svg viewBox="0 0 244.43135999999998 26.588153226517708" height="26.588153226517708" width="244.43135999999998"><g transform="matrix(1,0,0,1,0,0)"><svg width="244.43135999999998" viewBox="3.05 -36.5 340.12 37" height="26.588153226517708" data-palette-color="#ff908b"><path d="M16.7 0L3.05 0 3.05-35.5 16.7-35.5Q22.6-35.5 26.58-33.13 30.55-30.75 32.58-26.73 34.6-22.7 34.6-17.8L34.6-17.8Q34.6-12.4 32.38-8.4 30.15-4.4 26.13-2.2 22.1 0 16.7 0L16.7 0ZM24.7-17.8L24.7-17.8Q24.7-20.55 23.75-22.63 22.8-24.7 21-25.85 19.2-27 16.7-27L16.7-27 12.8-27 12.8-8.5 16.7-8.5Q19.25-8.5 21.03-9.7 22.8-10.9 23.75-13.03 24.7-15.15 24.7-17.8ZM51.15 0.5L51.15 0.5Q47.7 0.5 45-0.58 42.3-1.65 40.47-3.5 38.65-5.35 37.7-7.75 36.75-10.15 36.75-12.8L36.75-12.8Q36.75-16.6 38.4-19.78 40.05-22.95 43.25-24.88 46.45-26.8 51.15-26.8L51.15-26.8Q55.85-26.8 59.05-24.9 62.25-23 63.9-19.9 65.55-16.8 65.55-13.15L65.55-13.15Q65.55-12.4 65.47-11.63 65.4-10.85 65.3-10.25L65.3-10.25 46.85-10.25Q46.95-8.85 47.62-7.98 48.3-7.1 49.32-6.7 50.35-6.3 51.45-6.3L51.45-6.3Q53-6.3 54.37-7 55.75-7.7 56.2-8.95L56.2-8.95 64.25-6.65Q63.2-4.55 61.32-2.95 59.45-1.35 56.9-0.43 54.35 0.5 51.15 0.5ZM46.65-15.95L46.65-15.95 55.35-15.95Q55.2-17.25 54.62-18.15 54.05-19.05 53.12-19.55 52.2-20.05 51-20.05L51-20.05Q49.8-20.05 48.87-19.55 47.95-19.05 47.37-18.15 46.8-17.25 46.65-15.95ZM79.2 0.5L79.2 0.5Q75.75 0.5 72.42-0.63 69.09-1.75 66.8-3.9L66.8-3.9 70.05-9.75Q72.5-8.15 74.77-7.25 77.05-6.35 78.9-6.35L78.9-6.35Q79.95-6.35 80.45-6.63 80.95-6.9 80.95-7.55L80.95-7.55Q80.95-8 80.59-8.3 80.25-8.6 79.47-8.9 78.7-9.2 77.5-9.55L77.5-9.55Q74.4-10.65 72.32-11.6 70.25-12.55 69.22-13.93 68.2-15.3 68.2-17.6L68.2-17.6Q68.2-20.3 69.55-22.38 70.9-24.45 73.42-25.65 75.95-26.85 79.5-26.85L79.5-26.85Q82.15-26.85 84.82-26.03 87.5-25.2 90-23.05L90-23.05 86.4-17.25Q83.9-18.8 82.17-19.45 80.45-20.1 79.09-20.1L79.09-20.1Q78.45-20.1 77.97-19.95 77.5-19.8 77.25-19.5 77-19.2 77-18.7L77-18.7Q77-18.2 77.34-17.88 77.7-17.55 78.45-17.28 79.2-17 80.34-16.65L80.34-16.65Q83.75-15.65 85.9-14.63 88.05-13.6 89.07-12.15 90.09-10.7 90.09-8.35L90.09-8.35Q90.09-4.2 87.17-1.85 84.25 0.5 79.2 0.5ZM92.24-7.95L92.24-7.95Q92.24-10.6 93.69-12.63 95.14-14.65 97.72-15.8 100.29-16.95 103.59-16.95L103.59-16.95Q105.14-16.95 106.52-16.7 107.89-16.45 108.89-15.95L108.89-15.95 108.89-16.75Q108.89-18.6 107.82-19.5 106.74-20.4 104.34-20.4L104.34-20.4Q102.14-20.4 100.22-19.68 98.29-18.95 96.19-17.55L96.19-17.55 93.44-23.45Q96.09-25.15 99.02-25.98 101.94-26.8 105.29-26.8L105.29-26.8Q111.54-26.8 114.97-23.98 118.39-21.15 118.39-15.6L118.39-15.6 118.39-10.5Q118.39-9.15 118.79-8.63 119.19-8.1 120.19-8L120.19-8 120.19 0Q119.04 0.25 118.02 0.38 116.99 0.5 116.19 0.5L116.19 0.5Q113.64 0.5 112.32-0.43 110.99-1.35 110.59-3.15L110.59-3.15 110.39-4.1Q108.64-1.85 106.34-0.68 104.04 0.5 101.44 0.5L101.44 0.5Q98.84 0.5 96.74-0.6 94.64-1.7 93.44-3.63 92.24-5.55 92.24-7.95ZM107.64-7.3L107.64-7.3Q108.19-7.7 108.54-8.18 108.89-8.65 108.89-9.15L108.89-9.15 108.89-11.1Q108.09-11.4 107.07-11.6 106.04-11.8 105.24-11.8L105.24-11.8Q103.54-11.8 102.37-10.95 101.19-10.1 101.19-8.8L101.19-8.8Q101.19-8.1 101.59-7.53 101.99-6.95 102.69-6.63 103.39-6.3 104.29-6.3L104.29-6.3Q105.14-6.3 106.07-6.58 106.99-6.85 107.64-7.3ZM141.49-26.75L141.49-18.2Q138.74-18.2 136.49-17.6 134.24-17 133.14-15.6L133.14-15.6 133.14 0 123.64 0 123.64-26.3 132.34-26.3 132.34-21.3Q133.74-23.95 135.84-25.38 137.94-26.8 140.29-26.8L140.29-26.8Q140.84-26.8 141.06-26.8 141.29-26.8 141.49-26.75L141.49-26.75ZM162.29-26.75L162.29-18.2Q159.54-18.2 157.29-17.6 155.04-17 153.94-15.6L153.94-15.6 153.94 0 144.44 0 144.44-26.3 153.14-26.3 153.14-21.3Q154.54-23.95 156.64-25.38 158.74-26.8 161.09-26.8L161.09-26.8Q161.64-26.8 161.86-26.8 162.09-26.8 162.29-26.75L162.29-26.75ZM178.19 0.5L178.19 0.5Q174.69 0.5 171.99-0.6 169.29-1.7 167.46-3.63 165.64-5.55 164.71-8 163.79-10.45 163.79-13.15L163.79-13.15Q163.79-15.85 164.71-18.32 165.64-20.8 167.46-22.7 169.29-24.6 171.99-25.7 174.69-26.8 178.19-26.8L178.19-26.8Q181.74-26.8 184.41-25.7 187.09-24.6 188.91-22.7 190.74-20.8 191.66-18.32 192.59-15.85 192.59-13.15L192.59-13.15Q192.59-10.45 191.66-8 190.74-5.55 188.91-3.63 187.09-1.7 184.41-0.6 181.74 0.5 178.19 0.5ZM173.54-13.15L173.54-13.15Q173.54-11.4 174.14-10.13 174.74-8.85 175.79-8.18 176.84-7.5 178.19-7.5L178.19-7.5Q179.54-7.5 180.59-8.18 181.64-8.85 182.24-10.13 182.84-11.4 182.84-13.15L182.84-13.15Q182.84-14.9 182.24-16.18 181.64-17.45 180.59-18.13 179.54-18.8 178.19-18.8L178.19-18.8Q176.84-18.8 175.79-18.13 174.74-17.45 174.14-16.18 173.54-14.9 173.54-13.15ZM195.73-7.1L195.73-36.5 205.23-36.5 205.23-10.45Q205.23-9 205.86-8.22 206.48-7.45 207.68-7.45L207.68-7.45Q208.28-7.45 208.98-7.65 209.68-7.85 210.28-8.2L210.28-8.2 211.48-1.2Q209.78-0.4 207.66 0.05 205.53 0.5 203.63 0.5L203.63 0.5Q199.83 0.5 197.78-1.48 195.73-3.45 195.73-7.1L195.73-7.1ZM213.48-7.1L213.48-36.5 222.98-36.5 222.98-10.45Q222.98-9 223.61-8.22 224.23-7.45 225.43-7.45L225.43-7.45Q226.03-7.45 226.73-7.65 227.43-7.85 228.03-8.2L228.03-8.2 229.23-1.2Q227.53-0.4 225.41 0.05 223.28 0.5 221.38 0.5L221.38 0.5Q217.58 0.5 215.53-1.48 213.48-3.45 213.48-7.1L213.48-7.1ZM229.98-7.95L229.98-7.95Q229.98-10.6 231.43-12.63 232.88-14.65 235.45-15.8 238.03-16.95 241.33-16.95L241.33-16.95Q242.88-16.95 244.25-16.7 245.63-16.45 246.63-15.95L246.63-15.95 246.63-16.75Q246.63-18.6 245.55-19.5 244.48-20.4 242.08-20.4L242.08-20.4Q239.88-20.4 237.95-19.68 236.03-18.95 233.93-17.55L233.93-17.55 231.18-23.45Q233.83-25.15 236.75-25.98 239.68-26.8 243.03-26.8L243.03-26.8Q249.28-26.8 252.7-23.98 256.13-21.15 256.13-15.6L256.13-15.6 256.13-10.5Q256.13-9.15 256.53-8.63 256.93-8.1 257.93-8L257.93-8 257.93 0Q256.78 0.25 255.75 0.38 254.73 0.5 253.93 0.5L253.93 0.5Q251.38 0.5 250.05-0.43 248.73-1.35 248.33-3.15L248.33-3.15 248.13-4.1Q246.38-1.85 244.08-0.68 241.78 0.5 239.18 0.5L239.18 0.5Q236.58 0.5 234.48-0.6 232.38-1.7 231.18-3.63 229.98-5.55 229.98-7.95ZM245.38-7.3L245.38-7.3Q245.93-7.7 246.28-8.18 246.63-8.65 246.63-9.15L246.63-9.15 246.63-11.1Q245.83-11.4 244.8-11.6 243.78-11.8 242.98-11.8L242.98-11.8Q241.28-11.8 240.1-10.95 238.93-10.1 238.93-8.8L238.93-8.8Q238.93-8.1 239.33-7.53 239.73-6.95 240.43-6.63 241.13-6.3 242.03-6.3L242.03-6.3Q242.88-6.3 243.8-6.58 244.73-6.85 245.38-7.3ZM259.98-13.2L259.98-13.2Q259.98-17.1 261.45-20.18 262.93-23.25 265.53-25.03 268.13-26.8 271.48-26.8L271.48-26.8Q274.03-26.8 276.18-25.63 278.33-24.45 279.43-22.4L279.43-22.4 279.43-36.5 288.93-36.5 288.93-10.5Q288.93-9.15 289.33-8.63 289.73-8.1 290.73-8L290.73-8 290.73 0Q288.28 0.5 286.73 0.5L286.73 0.5Q284.33 0.5 282.93-0.4 281.53-1.3 281.13-3.15L281.13-3.15 280.93-4.1Q279.58-1.7 277.28-0.6 274.98 0.5 272.38 0.5L272.38 0.5Q269.68 0.5 267.4-0.5 265.13-1.5 263.45-3.33 261.78-5.15 260.88-7.68 259.98-10.2 259.98-13.2ZM279.48-10.2L279.48-10.2 279.48-14.9Q279.03-16.05 278.25-16.93 277.48-17.8 276.53-18.3 275.58-18.8 274.58-18.8L274.58-18.8Q273.53-18.8 272.65-18.35 271.78-17.9 271.13-17.1 270.48-16.3 270.13-15.25 269.78-14.2 269.78-13L269.78-13Q269.78-11.75 270.15-10.75 270.53-9.75 271.23-9.03 271.93-8.3 272.88-7.9 273.83-7.5 274.98-7.5L274.98-7.5Q275.68-7.5 276.28-7.68 276.88-7.85 277.43-8.18 277.98-8.5 278.5-9.03 279.03-9.55 279.48-10.2ZM307.57 0.5L307.57 0.5Q304.07 0.5 301.37-0.6 298.67-1.7 296.85-3.63 295.02-5.55 294.1-8 293.17-10.45 293.17-13.15L293.17-13.15Q293.17-15.85 294.1-18.32 295.02-20.8 296.85-22.7 298.67-24.6 301.37-25.7 304.07-26.8 307.57-26.8L307.57-26.8Q311.12-26.8 313.8-25.7 316.47-24.6 318.3-22.7 320.12-20.8 321.05-18.32 321.97-15.85 321.97-13.15L321.97-13.15Q321.97-10.45 321.05-8 320.12-5.55 318.3-3.63 316.47-1.7 313.8-0.6 311.12 0.5 307.57 0.5ZM302.92-13.15L302.92-13.15Q302.92-11.4 303.52-10.13 304.12-8.85 305.17-8.18 306.22-7.5 307.57-7.5L307.57-7.5Q308.92-7.5 309.97-8.18 311.02-8.85 311.62-10.13 312.22-11.4 312.22-13.15L312.22-13.15Q312.22-14.9 311.62-16.18 311.02-17.45 309.97-18.13 308.92-18.8 307.57-18.8L307.57-18.8Q306.22-18.8 305.17-18.13 304.12-17.45 303.52-16.18 302.92-14.9 302.92-13.15ZM343.17-26.75L343.17-18.2Q340.42-18.2 338.17-17.6 335.92-17 334.82-15.6L334.82-15.6 334.82 0 325.32 0 325.32-26.3 334.02-26.3 334.02-21.3Q335.42-23.95 337.52-25.38 339.62-26.8 341.97-26.8L341.97-26.8Q342.52-26.8 342.75-26.8 342.97-26.8 343.17-26.75L343.17-26.75Z" opacity="1" transform="matrix(1,0,0,1,0,0)" fill="#ff908b" class="slogan-text-1" data-fill-palette-color="secondary" id="text-1"></path></svg></g></svg></g></svg></g></svg></g></svg></g></svg></g></svg></g><g><path d="M214.903 0c33.269 0 63.468 13.144 85.688 34.523l-7.153 0c-20.932-18.469-48.425-29.675-78.535-29.675-30.11 0-57.602 11.206-78.534 29.675l-7.153 0c22.219-21.379 52.418-34.523 85.687-34.523zM338.503 123.6c0 33.146-13.047 63.245-34.286 85.44v-7.175c18.328-20.898 29.438-48.284 29.438-78.265 0-29.981-11.11-57.367-29.438-78.265v-7.175c21.239 22.196 34.286 52.294 34.286 85.44zM214.903 247.2c-33.269 0-63.468-13.144-85.687-34.523h7.153c20.932 18.469 48.425 29.675 78.534 29.675 30.11 0 57.602-11.206 78.535-29.675h7.153c-22.219 21.379-52.418 34.523-85.688 34.523z" fill="#ed1703" stroke="transparent" data-fill-palette-color="tertiary"></path></g></svg></g><defs></defs></svg><rect width="395.52" height="247.2" fill="none" stroke="none" visibility="hidden"></rect></g></svg></g></svg>